<svg width="83" height="36" viewBox="0 0 83 36" fill="none" xmlns="http://www.w3.org/2000/svg">
<rect y="20.1562" width="83" height="15.8437" fill="#0B75FE"/>
<path fill-rule="evenodd" clip-rule="evenodd" d="M26.3594 20.1558H30.4638V21.4761H26.3594V20.1558ZM30.4648 20.1558H83.0011V35.9994H30.4648V35.9985H28V34.6786H25.5391V32.038H30.4648V29.3974H27.1797V26.7568H30.4648V24.7768H29.6445V24.1172H28V22.1367H30.4648V20.1558Z" fill="#EFFF04"/>
<path d="M8.53938 32.166C7.27948 32.166 6.27156 31.7928 5.51562 31.0464L6.44523 29.6838C7.04453 30.3035 7.76982 30.6133 8.6211 30.6133C8.92075 30.6133 9.15571 30.5605 9.32596 30.4549C9.50303 30.3422 9.59156 30.2014 9.59156 30.0324C9.59156 29.8845 9.49622 29.7648 9.30553 29.6733C9.11485 29.5747 8.87649 29.5043 8.59046 29.462C8.30443 29.4127 7.99456 29.3388 7.66086 29.2402C7.32715 29.1346 7.01729 29.0149 6.73126 28.8811C6.44523 28.7403 6.20687 28.5185 6.01618 28.2157C5.82549 27.9129 5.73015 27.5502 5.73015 27.1277C5.73015 26.5081 5.97191 25.9799 6.45544 25.5434C6.94578 25.1068 7.60978 24.8885 8.44744 24.8885C9.55751 24.8885 10.4803 25.2159 11.2158 25.8708L10.2556 27.17C9.6835 26.6841 9.0195 26.4412 8.26356 26.4412C7.77323 26.4412 7.52806 26.6102 7.52806 26.9482C7.52806 27.082 7.6234 27.1981 7.81409 27.2967C8.00477 27.3883 8.24313 27.4587 8.52916 27.508C8.81519 27.5573 9.12166 27.6347 9.44855 27.7404C9.78225 27.8389 10.0921 27.9586 10.3781 28.0995C10.6642 28.2403 10.9025 28.4586 11.0932 28.7543C11.2839 29.0501 11.3793 29.4022 11.3793 29.8106C11.3793 30.5288 11.1307 31.1027 10.6335 31.5323C10.1364 31.9548 9.43833 32.166 8.53938 32.166Z" fill="black"/>
<path d="M21.6069 32.166C20.5513 32.166 19.6727 31.828 18.9713 31.152C18.2698 30.469 17.9191 29.5923 17.9191 28.522C17.9191 27.4446 18.2664 26.5679 18.9611 25.8919C19.6625 25.2159 20.5445 24.8779 21.6069 24.8779C22.9757 24.8779 23.9666 25.5082 24.5795 26.7686L23.0677 27.508C22.9519 27.2193 22.7578 26.9763 22.4854 26.7792C22.2198 26.582 21.9269 26.4834 21.6069 26.4834C21.0552 26.4834 20.5989 26.6806 20.238 27.0749C19.8839 27.4622 19.7068 27.9446 19.7068 28.522C19.7068 29.0994 19.8839 29.5853 20.238 29.9796C20.5989 30.3669 21.0552 30.5605 21.6069 30.5605C21.9269 30.5605 22.2198 30.4619 22.4854 30.2648C22.7578 30.0676 22.9519 29.8247 23.0677 29.536L24.5795 30.2753C24.3207 30.8105 23.9462 31.2612 23.4558 31.6273C22.9723 31.9865 22.356 32.166 21.6069 32.166Z" fill="black"/>
<path d="M37.7485 32.0393H35.9915V29.2085H33.1618V32.0393H31.4048V24.9941H33.1618V27.6242H35.9915V24.9941H37.7485V32.0393Z" fill="black"/>
<path d="M50.9464 31.1415C50.2586 31.8245 49.3902 32.166 48.3415 32.166C47.2927 32.166 46.421 31.8245 45.7263 31.1415C45.0385 30.4584 44.6946 29.5853 44.6946 28.522C44.6946 27.4587 45.0385 26.5855 45.7263 25.9025C46.421 25.2194 47.2927 24.8779 48.3415 24.8779C49.3902 24.8779 50.2586 25.2194 50.9464 25.9025C51.6342 26.5855 51.9781 27.4587 51.9781 28.522C51.9781 29.5853 51.6342 30.4584 50.9464 31.1415ZM48.3415 30.5605C48.8931 30.5605 49.3392 30.3669 49.6797 29.9796C50.0202 29.5923 50.1905 29.1064 50.1905 28.522C50.1905 27.9375 50.0202 27.4516 49.6797 27.0644C49.3392 26.6771 48.8931 26.4834 48.3415 26.4834C47.783 26.4834 47.3336 26.6771 46.993 27.0644C46.6525 27.4516 46.4823 27.9375 46.4823 28.522C46.4823 29.1064 46.6525 29.5923 46.993 29.9796C47.3336 30.3669 47.783 30.5605 48.3415 30.5605Z" fill="black"/>
<path d="M64.8329 31.1415C64.1451 31.8245 63.2768 32.166 62.228 32.166C61.1792 32.166 60.3075 31.8245 59.6129 31.1415C58.925 30.4584 58.5811 29.5853 58.5811 28.522C58.5811 27.4587 58.925 26.5855 59.6129 25.9025C60.3075 25.2194 61.1792 24.8779 62.228 24.8779C63.2768 24.8779 64.1451 25.2194 64.8329 25.9025C65.5208 26.5855 65.8647 27.4587 65.8647 28.522C65.8647 29.5853 65.5208 30.4584 64.8329 31.1415ZM62.228 30.5605C62.7796 30.5605 63.2257 30.3669 63.5662 29.9796C63.9067 29.5923 64.077 29.1064 64.077 28.522C64.077 27.9375 63.9067 27.4516 63.5662 27.0644C63.2257 26.6771 62.7796 26.4834 62.228 26.4834C61.6696 26.4834 61.2201 26.6771 60.8796 27.0644C60.5391 27.4516 60.3688 27.9375 60.3688 28.522C60.3688 29.1064 60.5391 29.5923 60.8796 29.9796C61.2201 30.3669 61.6696 30.5605 62.228 30.5605Z" fill="black"/>
<path d="M77.3097 32.0393H72.815V24.9941H74.572V30.4549H77.3097V32.0393Z" fill="black"/>
<rect x="0.625" width="3.80239" height="11.7947" fill="black"/>
<rect x="4.42578" y="11.7944" width="6.65419" height="3.93157" fill="black"/>
<rect x="13.9336" y="11.7944" width="8.55538" height="3.93157" fill="black"/>
<rect x="13.9336" y="5.89697" width="8.55538" height="3.93157" fill="black"/>
<rect x="13.9336" width="8.55538" height="3.93157" fill="black"/>
<rect x="27.2422" width="18.0614" height="3.93157" fill="black"/>
<rect x="52.9062" width="12.3578" height="3.93157" fill="black"/>
<rect x="69.0664" width="9.50598" height="3.93157" fill="black"/>
<rect x="56.7109" y="11.7944" width="8.55538" height="3.93157" fill="black"/>
<rect x="13.9336" width="3.80239" height="15.7263" fill="black"/>
<rect x="27.2422" width="3.80239" height="15.7263" fill="black"/>
<rect x="35.7969" width="3.80239" height="15.7263" fill="black"/>
<rect x="69.0664" width="3.80239" height="15.7263" fill="black"/>
<rect x="78.5742" y="3.93164" width="3.80239" height="11.7947" fill="black"/>
<rect x="45.3047" y="3.93164" width="3.80239" height="11.7947" fill="black"/>
<rect x="52.9062" y="0.983398" width="3.80239" height="10.8118" fill="black"/>
<rect x="61.4648" y="0.983398" width="3.80239" height="14.7434" fill="black"/>
</svg>
